<?xml version="1.0" encoding="utf-8"?>
<!-- Generator: Adobe Illustrator 26.0.3, SVG Export Plug-In . SVG Version: 6.00 Build 0)  -->
<svg version="1.1" id="Layer_1" xmlns="http://www.w3.org/2000/svg" xmlns:xlink="http://www.w3.org/1999/xlink" x="0px" y="0px"
	 viewBox="0 0 504 360" style="enable-background:new 0 0 504 360;" xml:space="preserve">
<g>
	<path d="M297.4,133.5c1.9,2,3.5,3.5,5.2,5.3c5.5-4.4,10.9-8.7,16.2-13c8.7-7,17.4-14,26.1-21c2.8-2.2,5.2-2.5,7.2-0.9
		c2.4,1.9,2.6,4.8,0.3,7.7c-4.5,5.8-9.1,11.5-13.6,17.3c-6.7,8.6-13.5,17.1-20.4,25.9c1.6,1.4,3.2,2.7,4.9,4.2
		c0.4-0.4,1.1-1,1.7-1.6c11.8-11.8,23.7-23.7,35.5-35.5c3.1-3.1,6.4-3.3,9-0.7c2.1,2.2,2.4,4.4,0.6,7.3c-4,6.5-8.1,13-12.2,19.5
		c-5.8,9.1-11.2,18.4-17.4,27.1c-9.3,13-27.9,16.7-41.6,8.6c-2.3-1.4-3.5-1.1-5.4,0.7c-29,29-58.2,58-87.3,87
		c-1.9,1.9-4.1,3.7-6.6,4.8c-6,2.8-13,0.5-17.3-5.2c-4-5.4-3.9-12.4,0.3-17.6c0.9-1.1,1.9-2.1,2.9-3.1c29-29.2,58.1-58.4,87.2-87.5
		c1.6-1.6,1.7-2.7,0.6-4.6c-8.3-14.4-4.8-32.7,8.9-42c13.4-9.2,27.3-17.6,41-26.4c1.8-1.2,3.6-2.4,5.5-3.4c2.8-1.6,5.5-1,7.3,1.3
		c2,2.5,1.9,5.1-0.6,7.6c-11.9,12.1-23.9,24.2-35.9,36.2C299,132.3,298.3,132.8,297.4,133.5z"/>
</g>
</svg>
